<?xml version="1.0" encoding="utf-8"?>
<!-- Generator: Adobe Illustrator 25.1.0, SVG Export Plug-In . SVG Version: 6.00 Build 0)  -->
<svg version="1.1" id="Layer_1" xmlns="http://www.w3.org/2000/svg" xmlns:xlink="http://www.w3.org/1999/xlink" x="0px" y="0px"
	 viewBox="0 0 50 30.1" style="enable-background:new 0 0 50 30.1;" xml:space="preserve">
<style type="text/css">
	.st0{fill:#FFFFFF;}
</style>
<g>
	<path class="st0" d="M26.1,28.2c-0.6-0.5-0.7-1.2-0.7-1.2l-0.2-1.5h-7.5L17.4,27c0,0-0.1,0.7-0.7,1.2c-0.6,0.5-1.1,0.9-0.6,0.9
		c0.5,0.1,5,0,5.3,0c0.3,0,4.9,0.1,5.3,0C27.2,29,26.8,28.7,26.1,28.2z"/>
	<path class="st0" d="M8.6,15.5c0-0.7-0.6-1.3-1.3-1.3h-6c-0.7,0-1.3,0.6-1.3,1.3v13.3c0,0.7,0.6,1.3,1.3,1.3h6
		c0.7,0,1.3-0.6,1.3-1.3L8.6,15.5L8.6,15.5z M3.7,15.6h1.3c0.1,0,0.2,0.1,0.2,0.2C5.1,15.9,5,16,4.9,16H3.7c-0.1,0-0.2-0.1-0.2-0.2
		C3.5,15.7,3.6,15.6,3.7,15.6z M4.2,29.3c-0.4,0-0.6-0.3-0.6-0.6c0-0.4,0.3-0.6,0.6-0.6c0.4,0,0.6,0.3,0.6,0.6
		C4.9,29,4.6,29.3,4.2,29.3z M7.8,27.5h-7V16.9h7L7.8,27.5L7.8,27.5z"/>
	<path class="st0" d="M48.2,6.9h-13c-1,0-1.8,0.8-1.8,1.8v18.7c0,1,0.8,1.8,1.8,1.8h13c1,0,1.8-0.8,1.8-1.8V8.7
		C50,7.7,49.2,6.9,48.2,6.9z M39.1,28.2c-0.5,0-0.9-0.4-0.9-0.9c0-0.5,0.4-0.9,0.9-0.9c0.5,0,0.9,0.4,0.9,0.9
		C40,27.8,39.6,28.2,39.1,28.2z M41.7,28.2c-0.5,0-0.9-0.4-0.9-0.9c0-0.5,0.4-0.9,0.9-0.9c0.5,0,0.9,0.4,0.9,0.9
		C42.6,27.8,42.2,28.2,41.7,28.2z M44.3,28.2c-0.5,0-0.9-0.4-0.9-0.9c0-0.5,0.4-0.9,0.9-0.9c0.5,0,0.9,0.4,0.9,0.9
		C45.1,27.8,44.7,28.2,44.3,28.2z M48.9,25.6H34.5V8.5h14.4V25.6L48.9,25.6z"/>
	<path class="st0" d="M37.4,5.4h2.2v-4C39.6,0.7,39,0,38.2,0H4.6C3.8,0,3.2,0.7,3.2,1.5v11.3h2.2V2.2h32.1V5.4L37.4,5.4z"/>
	<path class="st0" d="M10.1,19.7v4.4h21.8v-4.4H10.1z M21.4,22.9c-0.6,0-1-0.4-1-1c0-0.6,0.4-1,1-1c0.6,0,1,0.4,1,1
		C22.4,22.4,22,22.9,21.4,22.9z"/>
</g>
</svg>
