<?xml version="1.0" encoding="utf-8"?>
<!-- Generator: Adobe Illustrator 25.4.0, SVG Export Plug-In . SVG Version: 6.00 Build 0)  -->
<svg version="1.1" id="Layer_1" xmlns="http://www.w3.org/2000/svg" xmlns:xlink="http://www.w3.org/1999/xlink" x="0px" y="0px"
	 viewBox="0 0 43.8 40" style="enable-background:new 0 0 43.8 40;" xml:space="preserve">
<style type="text/css">
	.st0{fill:#A5A5A3;}
</style>
<g id="Layer_2_00000049206868702743788110000012346558519190214024_">
	<g id="Layer_1-2">
		<path class="st0" d="M40.1,0l-0.3,2.5l1.4-2.2l-0.6,2.8c0.8,1.2,1.2,2.6,1,4.1c1.7,5.4-0.2,5.4-0.2,5.4c-1.4,0.2-2.5-1.9-2.5-1.9
			C38,10,37.4,9.2,37.1,8.2c-1.7,1.4-0.3,8.2-0.3,8.2c1,2.6-1.2,5.7-1.2,5.7s-0.7,0.2,0.3,0.3s4.2,3.3,4.2,3.3
			c3.5,1.4,3.5,8.4,3.5,8.4c0.6,2.7-0.1,2.4-0.1,2.4c-3.3-1.5-2-2.5-2-2.5c0.5-0.1,0.9-0.5,0.8-1c-1.1-0.6-1.4-3.9-1.4-3.9
			c-0.7-1.8-3.5-3-3.5-3c-2.6-1.3-2.1,0.1-2.1,0.1c2.2,2.2,1.1,3.5,1.1,3.5l-0.6,5.1c-0.3,2.7-1.5,2.8-1.5,2.8c-1.3,0-1-1.8-1-1.8
			c0-0.7,0.5-1.3,1.1-1.3c0.1,0,0.2,0,0.2,0c-0.1-0.5,0.1-1,0.5-1.4l-0.2-3.9c-1.2-1.4-3.5-4.5-3.5-4.5c-0.5-1.2-1.4-0.5-1.4-0.5
			c-4.4,2.9-12.3,0.7-12.3,0.7c0,1.4-0.5,2.7-1.2,3.8c-1.2,2.5-0.1,3.9-0.1,3.9l5,3.9c1.6,1.3,1,2.4,1,2.4h-2c-1.6,0-0.5-2-0.5-2
			c-1.3-0.3-5.6-3.5-5.6-3.5c-2-0.4-0.8-3.4-0.8-3.4c0-2-0.7-1.6-0.7-1.6c-0.5,1.1-1.2,2.2-2,3.2c-1.1,4.5,4.1,7,4.1,7
			c1.2,0.8,0.7,1.3,0.7,1.3h-1.8c-1.4,0-0.8-1.3-0.8-1.3C11.6,38.6,9.7,35,9.7,35c-3.2-2.7-1.5-3.9-1.5-3.9c1.2-1,1.9-2.5,1.9-4.1
			c-4.3-4.1-3.2-8.4-3.2-8.4c-1.2-0.5-1.7,0.9-1.7,0.9c-1.2,8.8-5,8.9-5,8.9c-1.6-12.1,7.2-11.2,7.2-11.2c3.7-5.5,13.9-3.1,13.9-3.1
			c3.1-0.8,5.8-2.8,7.5-5.6c3.4-8.7,9.9-7,9.9-7L40.1,0z"/>
	</g>
</g>
</svg>
