<?xml version="1.0" encoding="utf-8"?>
<!-- Generator: Adobe Illustrator 25.4.0, SVG Export Plug-In . SVG Version: 6.00 Build 0)  -->
<svg version="1.1" id="Layer_1" xmlns="http://www.w3.org/2000/svg" xmlns:xlink="http://www.w3.org/1999/xlink" x="0px" y="0px"
	 viewBox="0 0 40 40" style="enable-background:new 0 0 40 40;" xml:space="preserve">
<style type="text/css">
	.st0{fill:#A5A5A3;}
</style>
<g id="Layer_2_00000068663958329186871390000000213091424939769984_">
	<g id="Layer_1-2">
		<path class="st0" d="M8.2,14.1h23.6c0.6,0,1.1,0.5,1.1,1.1v1.4c0,0.6-0.5,1.1-1.1,1.1H8.2c-0.6,0-1.1-0.5-1.1-1.1v-1.4
			C7.1,14.6,7.6,14.1,8.2,14.1z"/>
		<path class="st0" d="M29.3,34.1h7.3c0.6,0,1.1-0.5,1.1-1.1v-1.4c0-0.6-0.5-1.1-1.1-1.1H3.4c-0.6,0-1.1,0.5-1.1,1.1v1.4
			c0,0.6,0.5,1.1,1.1,1.1h7.3c0.6,0,1.1,0.5,1.1,1.1v0.2c0,0.6-0.5,1.1-1.1,1.1c0,0,0,0,0,0H1.1C0.5,36.5,0,37,0,37.5v1.4
			C0,39.5,0.5,40,1.1,40h37.9c0.6,0,1.1-0.5,1.1-1.1v-1.4c0-0.6-0.5-1.1-1.1-1.1h-9.7c-0.6,0-1.1-0.5-1.1-1c0,0,0,0,0,0v-0.2
			C28.2,34.6,28.7,34.1,29.3,34.1z"/>
		<path class="st0" d="M21.2,3.9V3.4c0-0.6,0.5-1.1,1.1-1.1h2.5c0.6,0,1.1-0.5,1.1-1c0,0,0,0,0,0V1.1c0-0.6-0.5-1.1-1.1-1.1h-4.9
			c-0.6,0-1.1,0.5-1.1,1.1v2.8c0,0.5-0.4,0.9-0.9,1c-3,0.6-5.7,2.6-7.1,5.3c-0.3,0.5-0.1,1.2,0.4,1.5c0.2,0.1,0.3,0.1,0.5,0.1h16.5
			c0.6,0,1.1-0.5,1.1-1c0-0.2,0-0.4-0.1-0.5c-1.5-2.7-4.1-4.7-7.2-5.3C21.5,4.8,21.1,4.4,21.2,3.9z"/>
		<path class="st0" d="M10.5,20h2.6c0.6,0,1.1,0.5,1.1,1.1v6.1c0,0.6-0.5,1.1-1.1,1.1h-2.6c-0.6,0-1.1-0.5-1.1-1.1v-6.1
			C9.5,20.5,9.9,20,10.5,20z"/>
		<path class="st0" d="M18.7,20h2.6c0.6,0,1.1,0.5,1.1,1.1c0,0,0,0,0,0v6.1c0,0.6-0.5,1.1-1.1,1.1h-2.6c-0.6,0-1.1-0.5-1.1-1.1v-6.1
			C17.7,20.5,18.1,20,18.7,20C18.7,20,18.7,20,18.7,20z"/>
		<path class="st0" d="M26.9,20h2.5c0.6,0,1.1,0.5,1.1,1.1v6.1c0,0.6-0.5,1.1-1.1,1.1h-2.5c-0.6,0-1.1-0.5-1.1-1.1v-6.1
			C25.9,20.5,26.3,20,26.9,20z"/>
	</g>
</g>
</svg>
