<?xml version="1.0" encoding="utf-8"?>
<!-- Generator: Adobe Illustrator 25.4.0, SVG Export Plug-In . SVG Version: 6.00 Build 0)  -->
<svg version="1.1" id="Layer_1" xmlns="http://www.w3.org/2000/svg" xmlns:xlink="http://www.w3.org/1999/xlink" x="0px" y="0px"
	 viewBox="0 0 40 40" style="enable-background:new 0 0 40 40;" xml:space="preserve">
<style type="text/css">
	.st0{fill:#A5A5A3;}
</style>
<g id="Layer_2_00000046334843146452903060000001500404671807269274_">
	<g id="Layer_1-2">
		<path class="st0" d="M20.9,10.5c-2-3.8-6.6-5.3-10.4-3.3s-5.3,6.6-3.3,10.4c0.7,1.4,1.9,2.6,3.3,3.3C12.1,16,16,12.1,20.9,10.5z"
			/>
		<path class="st0" d="M4,15.2H0c0.2,2.9,1.4,5.7,3.3,7.9l2.9-2.8C5,18.8,4.2,17,4,15.2z"/>
		<path class="st0" d="M23.1,3.3c-2.2-1.9-5-3-7.9-3.3v4c1.8,0.2,3.6,0.9,5.1,2.1L23.1,3.3z"/>
		<path class="st0" d="M12.8,4V0C9.9,0.2,7.2,1.4,4.9,3.3l2.8,2.9C9.2,5,11,4.2,12.8,4z"/>
		<path class="st0" d="M6.1,7.8L3.3,4.9c-1.9,2.2-3,5-3.3,7.9h4C4.2,11,5,9.2,6.1,7.8z"/>
		<path class="st0" d="M9.9,23.2c-0.7-0.3-1.5-0.8-2.1-1.3l-2.9,2.8c1.4,1.2,3,2.1,4.8,2.7c0-0.5-0.1-1-0.1-1.4
			C9.6,25,9.7,24.1,9.9,23.2z"/>
		<path class="st0" d="M27.4,9.7c-0.6-1.7-1.5-3.4-2.7-4.8l-2.8,2.8c0.5,0.6,0.9,1.4,1.3,2.1c0.9-0.2,1.9-0.2,2.8-0.2
			C26.5,9.6,26.9,9.7,27.4,9.7z"/>
		<path class="st0" d="M33.7,26c0-4.3-3.4-7.7-7.7-7.7s-7.7,3.4-7.7,7.7s3.4,7.7,7.7,7.7c0,0,0,0,0,0C30.2,33.7,33.7,30.2,33.7,26z
			 M29.3,27L29,30.1l-3-0.6l-3,0.6L22.6,27l-1.6-2.7l2.8-1.2l2.1-2.3l2.1,2.3l2.8,1.2L29.3,27z"/>
		<path class="st0" d="M16,27.2h-4c0.2,2.9,1.4,5.7,3.3,7.9l2.8-2.8C17,30.8,16.2,29,16,27.2z"/>
		<path class="st0" d="M27.2,16c1.8,0.2,3.6,0.9,5,2.1l2.8-2.8c-2.2-1.9-5-3-7.9-3.2V16z"/>
		<path class="st0" d="M24.8,16v-4c-2.9,0.2-5.7,1.4-7.9,3.3l2.8,2.8C21.2,17,23,16.2,24.8,16z"/>
		<path class="st0" d="M16,24.8c0.2-1.8,0.9-3.6,2.1-5.1l-2.8-2.8c-1.9,2.2-3,5-3.2,7.9H16z"/>
		<path class="st0" d="M33.9,32.2l2.8,2.8c1.9-2.2,3-5,3.3-7.9h-4C35.8,29,35.1,30.8,33.9,32.2L33.9,32.2z"/>
		<path class="st0" d="M27.2,36v4c2.9-0.2,5.7-1.4,7.9-3.3l-2.8-2.8C30.8,35,29,35.8,27.2,36z"/>
		<path class="st0" d="M16.9,36.7c2.2,1.9,5,3,7.9,3.3v-4c-1.8-0.2-3.6-0.9-5.1-2.1L16.9,36.7z"/>
		<path class="st0" d="M36,24.8h4c-0.2-2.9-1.4-5.7-3.3-7.9l-2.8,2.8C35,21.2,35.8,23,36,24.8z"/>
		<path class="st0" d="M26,24.3L25.4,25l-0.9,0.4l0.5,0.8l0.1,1L26,27l1,0.2l0.1-1l0.5-0.8L26.7,25L26,24.3z"/>
	</g>
</g>
</svg>
