<?xml version="1.0" encoding="utf-8"?>
<!-- Generator: Adobe Illustrator 25.4.0, SVG Export Plug-In . SVG Version: 6.00 Build 0)  -->
<svg version="1.1" id="Layer_1" xmlns="http://www.w3.org/2000/svg" xmlns:xlink="http://www.w3.org/1999/xlink" x="0px" y="0px"
	 viewBox="0 0 40 40" style="enable-background:new 0 0 40 40;" xml:space="preserve">
<style type="text/css">
	.st0{fill:#A5A5A3;}
</style>
<g id="Layer_2_00000132809148586036493440000016590446211349654914_">
	<g id="Layer_1-2">
		<path class="st0" d="M20,0C9,0,0,9,0,20s9,20,20,20s20-9,20-20S31,0,20,0z M7.2,33.4C3.5,29.9,1.4,25.1,1.4,20c0-0.1,0-0.2,0-0.3
			l5.2,1.8l3.6,9.4L7.2,33.4z M11.4,6l9.4-3.4l6.7,6.3L22,16.8l-10.3-2L11.4,6z M32.4,33.8c-0.4,0.3-0.8,0.7-1.2,1l-7.7,3.3
			l-5.1-5.3l6.6-7.4l8.8,1.1L32.4,33.8z M34.9,8.9c2.4,3.2,3.7,7.1,3.7,11.1v0.3l-1-0.3l-3.2-8.9L34.9,8.9z"/>
	</g>
</g>
</svg>
