<?xml version="1.0" encoding="utf-8"?>
<!-- Generator: Adobe Illustrator 25.4.0, SVG Export Plug-In . SVG Version: 6.00 Build 0)  -->
<svg version="1.1" id="Layer_1" xmlns="http://www.w3.org/2000/svg" xmlns:xlink="http://www.w3.org/1999/xlink" x="0px" y="0px"
	 viewBox="0 0 38 40" style="enable-background:new 0 0 38 40;" xml:space="preserve">
<style type="text/css">
	.st0{fill:#A5A5A3;}
</style>
<g id="Layer_2_00000176009738990040516050000016099306780595477143_">
	<g id="Layer_1-2">
		<path class="st0" d="M5.5,39.3V9.5c0-1.5-1.2-2.8-2.8-2.8S0,8,0,9.5v29.8C0,39.7,0.3,40,0.7,40h4.2C5.2,40,5.5,39.7,5.5,39.3z"/>
		<path class="st0" d="M6.9,1.2h4.1c0.8,0,1.4,0.6,1.4,1.4c0,0,0,0,0,0v2.8c0,0.8-0.6,1.4-1.4,1.4l0,0H6.9c-0.8,0-1.4-0.6-1.4-1.4
			c0,0,0,0,0,0V2.6C5.5,1.9,6.2,1.2,6.9,1.2z"/>
		<path class="st0" d="M1.4,4c0,0.8,0.6,1.4,1.4,1.4h2.1V2.6H2.8C2,2.6,1.4,3.2,1.4,4z"/>
		<path class="st0" d="M15.2,2.6h-2.1v2.8h2.1c0.8-0.1,1.3-0.7,1.3-1.5C16.4,3.2,15.9,2.7,15.2,2.6z"/>
		<path class="st0" d="M23.9,0.8L27.9,0c0.7-0.2,1.5,0.3,1.6,1.1c0,0,0,0,0,0L30,3.8c0.1,0.8-0.4,1.5-1.1,1.6L25,6.2
			c-0.8,0.1-1.5-0.4-1.6-1.1l-0.5-2.7C22.7,1.6,23.2,0.9,23.9,0.8z"/>
		<path class="st0" d="M19.2,3.5c-0.2,0.3-0.3,0.7-0.2,1c0.2,0.7,0.9,1.2,1.6,1.1l2-0.4L22,2.5l-2,0.4C19.7,3,19.4,3.2,19.2,3.5z"/>
		<path class="st0" d="M32.8,3.3c0.8-0.1,1.2-0.9,1.1-1.6c-0.1-0.8-0.9-1.2-1.6-1.1l-2,0.4l0.5,2.7L32.8,3.3z"/>
		<path class="st0" d="M36.2,8.8c-1.4-0.5-3,0.2-3.6,1.6c0,0,0,0,0,0l-2.3,6.2c-0.7-3.8-4.3-6.2-8-5.6c-1.4,0.3-2.7,0.9-3.7,1.9
			c-0.2,0.2-0.4,0.5-0.6,0.8V9.5c0-1.5-1.2-2.8-2.8-2.8S12.5,8,12.5,9.5v29.8c0,0.4,0.3,0.7,0.7,0.7h4.1c0.4,0,0.7-0.3,0.7-0.7
			c0,0,0,0,0,0V22c0.2,0.3,0.4,0.5,0.6,0.8c2.5,2.5,6.5,2.7,9.2,0.5l-5.9,15.8c-0.1,0.2-0.1,0.4,0.1,0.6c0.1,0.2,0.3,0.3,0.6,0.3H27
			c0.3,0,0.5-0.2,0.6-0.5l10.2-27.2c0.1-0.3,0.2-0.7,0.2-1C38,10.2,37.3,9.2,36.2,8.8z"/>
	</g>
</g>
</svg>
