<?xml version="1.0" encoding="utf-8"?>
<!-- Generator: Adobe Illustrator 25.4.0, SVG Export Plug-In . SVG Version: 6.00 Build 0)  -->
<svg version="1.1" id="Layer_1" xmlns="http://www.w3.org/2000/svg" xmlns:xlink="http://www.w3.org/1999/xlink" x="0px" y="0px"
	 viewBox="0 0 40 40" style="enable-background:new 0 0 40 40;" xml:space="preserve">
<style type="text/css">
	.st0{fill:#FDB715;}
</style>
<g id="Layer_2_00000045578040578773395640000000050813608645895585_">
	<g>
		<g id="Layer_1-2_00000120522408415137380770000010039615363767241388_">
			<path class="st0" d="M31.8,17.5c-1.1,1.5-1.1,3.6,0,5.1C33.1,21.1,33.1,18.9,31.8,17.5z"/>
			<path class="st0" d="M39.2,22.5c1.1-1.5,1.1-3.6,0-5.1C38,18.9,38,21.1,39.2,22.5z"/>
			<path class="st0" d="M32.5,16.7c1.7,1.9,1.7,4.8,0,6.7c1.7,1.6,4.3,1.6,6,0c-1.7-1.9-1.7-4.8,0-6.7
				C36.8,15.1,34.2,15.1,32.5,16.7z"/>
			<path class="st0" d="M4.1,39.3l9.3-9.3c0.3-0.3,0.5-0.7,0.6-1.1c2.1-1.7,4.7-2.7,7.3-2.9c3.7,0.8,7.5,0,10.7-2.1
				c-0.9-0.8-1.5-1.9-1.7-3.2l-0.5,0.5l-2.1-2.1l2.1-2.1l0.8,0.8c0.2-0.4,0.4-0.8,0.7-1.2L30.7,16l2.1-2.1l0.9,0.9
				c0.5-0.2,1-0.3,1.5-0.3L33.7,13l2.1-2.1l1.9,1.9c0,0.1-0.1,0.3-0.1,0.4l-1.3,1.3c0.9,0.1,1.8,0.5,2.6,1.1c1.9-4.7,1.4-9.8-1.8-13
				c-4.6-4.6-12.9-3.7-18.5,2c-4,4-5.6,9.4-4.6,13.8c-0.2,2.7-1.2,5.2-2.9,7.4c-0.4,0.1-0.8,0.3-1.1,0.6l-9.3,9.3
				c-0.9,0.9-0.9,2.5,0,3.4S3.2,40.2,4.1,39.3L4.1,39.3z M22.7,24.2l1.2-1.2l1.2,1.2C24.3,24.4,23.5,24.4,22.7,24.2z M21.2,23.9
				c-1-0.3-1.9-0.8-2.6-1.5l2.3-2.3l2.1,2.1L21.2,23.9z M28.9,22.1l-1.8,1.8L26.7,24l-1.9-1.9l2.1-2.1L28.9,22.1z M23.8,21.2
				l-2.1-2.1l2.1-2.1l2.1,2.1L23.8,21.2z M23.8,9.2l-2.1-2l2.1-2.1l2.1,2.1L23.8,9.2z M29.8,5.1l2.1,2.1l-2.1,2.1l-2.1-2.1L29.8,5.1
				z M26.8,8.1l2.1,2.1l-2.1,2.1l-2.1-2.1L26.8,8.1z M25.9,13.1l-2.1,2.1l-2.1-2.1l2.1-2.1L25.9,13.1z M22.9,16.1l-2.1,2.1l-2.1-2.1
				l2.1-2.1L22.9,16.1z M26.8,18.2l-2.1-2.1l2.1-2.1l2.1,2.1L26.8,18.2z M31.9,13.2l-2.1,2.1l-2.1-2.1l2.1-2.1L31.9,13.2z
				 M32.8,12.2l-2.1-2.1L32.8,8l2.1,2.1L32.8,12.2z M38,11.4l-1.2-1.2L37.9,9C38,9.8,38.1,10.6,38,11.4z M37.6,7.5l-1.8,1.7
				l-2.1-2.1L36,4.8C36.7,5.6,37.2,6.5,37.6,7.5L37.6,7.5z M35.2,3.9l-2.4,2.3l-2.1-2.1l1.7-1.7C33.5,2.8,34.4,3.3,35.2,3.9
				L35.2,3.9z M31,2.1l-1.2,1.2L28.6,2C29.4,1.9,30.2,2,31,2.1z M27,2.3l1.9,1.9l-2.1,2.1l-2.1-2.1l1.8-1.8L27,2.3z M20.4,5.8
				c0.7-0.7,1.5-1.3,2.3-1.8l0.1,0.1l-2.1,2.1L20.4,5.8z M17.7,9.1c0.5-0.8,1.1-1.6,1.8-2.3l0.4,0.4l-2.1,2.1L17.7,9.1z M20.8,8.1
				l2.1,2.1l-2.1,2.1l-2.1-2.1L20.8,8.1z M16.1,12.9l1.8-1.8l2.1,2.1l-2.1,2.1l-1.9-2C16,13.2,16,13,16.1,12.9L16.1,12.9z M15.7,15
				l1.2,1.2l-1.2,1.2C15.6,16.6,15.6,15.8,15.7,15z M16.1,18.9l1.7-1.7l2.1,2.1l-2.3,2.3C16.9,20.7,16.4,19.8,16.1,18.9L16.1,18.9z
				 M13.4,26.7c-0.1-0.1-0.3-0.2-0.4-0.3c1-1.4,1.7-3,2.2-4.7c0.8,1.3,1.9,2.4,3.2,3.2c-1.7,0.4-3.2,1.1-4.7,2.1
				C13.6,26.9,13.5,26.7,13.4,26.7L13.4,26.7z"/>
		</g>
	</g>
</g>
</svg>
