<svg xmlns="http://www.w3.org/2000/svg" viewBox="0 0 40 40"><defs><style>.cls-1{fill:#fdb715;}</style></defs><g id="Layer_2" data-name="Layer 2"><g id="Layer_1-2" data-name="Layer 1"><path class="cls-1" d="M8.18,14.14H31.82a1.07,1.07,0,0,1,1.07,1.07v1.38a1.07,1.07,0,0,1-1.07,1.07H8.18a1.07,1.07,0,0,1-1.07-1.07V15.21A1.07,1.07,0,0,1,8.18,14.14Z"/><path class="cls-1" d="M29.27,34.14h7.32a1.07,1.07,0,0,0,1.07-1.07V31.69a1.07,1.07,0,0,0-1.07-1.07H3.41a1.07,1.07,0,0,0-1.07,1.07v1.38a1.07,1.07,0,0,0,1.07,1.07h7.32a1.07,1.07,0,0,1,1.07,1.07v.21a1.06,1.06,0,0,1-1.07,1.06H1.07A1.07,1.07,0,0,0,0,37.55v1.38A1.07,1.07,0,0,0,1.07,40H38.93A1.07,1.07,0,0,0,40,38.93V37.55a1.07,1.07,0,0,0-1.07-1.07H29.27a1.06,1.06,0,0,1-1.07-1.06v-.21A1.07,1.07,0,0,1,29.27,34.14Z"/><path class="cls-1" d="M21.17,3.88V3.41a1.07,1.07,0,0,1,1.07-1.07h2.55a1.06,1.06,0,0,0,1.07-1.06V1.07A1.07,1.07,0,0,0,24.79,0h-4.9a1.07,1.07,0,0,0-1.06,1.07V3.88a1,1,0,0,1-.86,1,10.61,10.61,0,0,0-7.15,5.3,1.07,1.07,0,0,0,.93,1.59h16.5a1.06,1.06,0,0,0,.94-1.57A10.61,10.61,0,0,0,22,4.91,1,1,0,0,1,21.17,3.88Z"/><path class="cls-1" d="M10.52,20h2.55a1.07,1.07,0,0,1,1.07,1.07v6.15a1.07,1.07,0,0,1-1.07,1.06H10.52a1.07,1.07,0,0,1-1.07-1.06V21.07A1.07,1.07,0,0,1,10.52,20Z"/><path class="cls-1" d="M18.72,20h2.56a1.06,1.06,0,0,1,1.06,1.07v6.15a1.06,1.06,0,0,1-1.06,1.06H18.72a1.06,1.06,0,0,1-1.06-1.06V21.07A1.06,1.06,0,0,1,18.72,20Z"/><path class="cls-1" d="M26.93,20h2.55a1.07,1.07,0,0,1,1.07,1.07v6.15a1.07,1.07,0,0,1-1.07,1.06H26.93a1.07,1.07,0,0,1-1.07-1.06V21.07A1.07,1.07,0,0,1,26.93,20Z"/></g></g></svg>