<svg xmlns="http://www.w3.org/2000/svg" viewBox="0 0 40 35.47"><defs><style>.cls-1{fill:#fdb715;}</style></defs><g id="Layer_2" data-name="Layer 2"><g id="Layer_1-2" data-name="Layer 1"><path class="cls-1" d="M18.63,4.53,15,.73A2.29,2.29,0,0,0,13.36,0a2.38,2.38,0,0,0-1.68.65L.72,11.12A2.3,2.3,0,0,0,0,12.76a2.36,2.36,0,0,0,.65,1.67l7.08,7.42V9.22a4.7,4.7,0,0,1,4.69-4.69Z"/><path class="cls-1" d="M38.23,4.8,23.54,1.08a2.28,2.28,0,0,0-1.77.25,2.35,2.35,0,0,0-1.08,1.44l-.44,1.76h7.33a4.7,4.7,0,0,1,4.69,4.69V32.54a2.5,2.5,0,0,0,.71-.28,2.3,2.3,0,0,0,1.07-1.44L39.93,7.65a2.35,2.35,0,0,0-1.7-2.85Z"/><path class="cls-1" d="M27.58,6.88H12.42a2.34,2.34,0,0,0-2.34,2.34V33.13a2.34,2.34,0,0,0,2.34,2.34H27.58a2.34,2.34,0,0,0,2.34-2.34V9.22A2.34,2.34,0,0,0,27.58,6.88Zm-12,4.37a1.17,1.17,0,1,1-1.17,1.17A1.17,1.17,0,0,1,15.62,11.25ZM20,26.72a1.16,1.16,0,0,1-.78-.3l-3.5-3.13,0,0a3.87,3.87,0,0,1-1.13-3.35,3.67,3.67,0,0,1,1.84-2.77,3.25,3.25,0,0,1,1.51-.38,3.12,3.12,0,0,1,2.08.8,3.12,3.12,0,0,1,2.08-.8,3.25,3.25,0,0,1,1.51.38,3.67,3.67,0,0,1,1.84,2.77,3.87,3.87,0,0,1-1.13,3.35l0,0-3.5,3.13A1.16,1.16,0,0,1,20,26.72Zm4.37,4.37a1.17,1.17,0,1,1,1.18-1.17A1.17,1.17,0,0,1,24.37,31.09Z"/></g></g></svg>