<svg xmlns="http://www.w3.org/2000/svg" viewBox="0 0 40 42.07"><defs><style>.cls-1{fill:#fdb715;}</style></defs><g id="Layer_2" data-name="Layer 2"><g id="Layer_1-2" data-name="Layer 1"><path class="cls-1" d="M5.82,41.34V10A2.91,2.91,0,0,0,0,10v31.3a.73.73,0,0,0,.73.73H5.1A.73.73,0,0,0,5.82,41.34Z"/><path class="cls-1" d="M7.28,1.3h4.37A1.45,1.45,0,0,1,13.1,2.76V5.67a1.46,1.46,0,0,1-1.45,1.46H7.28A1.47,1.47,0,0,1,5.82,5.67V2.76A1.46,1.46,0,0,1,7.28,1.3Z"/><path class="cls-1" d="M1.46,4.21A1.45,1.45,0,0,0,2.91,5.67H5.1V2.76H2.91A1.45,1.45,0,0,0,1.46,4.21Z"/><path class="cls-1" d="M16,2.76H13.83V5.67H16a1.46,1.46,0,1,0,0-2.91Z"/><path class="cls-1" d="M25.17.82,29.29,0A1.46,1.46,0,0,1,31,1.18L31.55,4a1.45,1.45,0,0,1-1.16,1.7l-4.12.8a1.46,1.46,0,0,1-1.71-1.15L24,2.53A1.47,1.47,0,0,1,25.17.82Z"/><path class="cls-1" d="M20.15,3.71a1.37,1.37,0,0,0-.23,1.09A1.45,1.45,0,0,0,21.62,6l2.15-.41-.55-2.86-2.15.42A1.4,1.4,0,0,0,20.15,3.71Z"/><path class="cls-1" d="M34.49,3.47a1.45,1.45,0,0,0,1.15-1.7A1.47,1.47,0,0,0,33.94.61L31.79,1l.55,2.86Z"/><path class="cls-1" d="M38.11,9.27A2.91,2.91,0,0,0,34.37,11l-2.46,6.51A7.28,7.28,0,0,0,19.6,13.63a6.35,6.35,0,0,0-.67.79V10a2.92,2.92,0,0,0-5.83,0v31.3a.73.73,0,0,0,.73.73H18.2a.73.73,0,0,0,.73-.73V23.13a7.18,7.18,0,0,0,.67.79,7.28,7.28,0,0,0,9.69.54L23,41.08a.69.69,0,0,0,.08.67.73.73,0,0,0,.6.32h4.67a.73.73,0,0,0,.68-.48L39.81,13A2.81,2.81,0,0,0,40,12,2.91,2.91,0,0,0,38.11,9.27Z"/></g></g></svg>