<svg xmlns="http://www.w3.org/2000/svg" viewBox="0 0 40 40"><defs><style>.cls-1{fill:#fdb715;}</style></defs><g id="Layer_2" data-name="Layer 2"><g id="Layer_1-2" data-name="Layer 1"><path class="cls-1" d="M20.86,10.47A7.71,7.71,0,1,0,10.47,20.86,16.43,16.43,0,0,1,20.86,10.47Z"/><path class="cls-1" d="M4,15.19H0a14,14,0,0,0,3.28,7.9l2.85-2.84A10,10,0,0,1,4,15.19Z"/><path class="cls-1" d="M23.09,3.28A14,14,0,0,0,15.19,0V4a10,10,0,0,1,5.06,2.1Z"/><path class="cls-1" d="M12.84,4V0a14,14,0,0,0-7.9,3.28L7.79,6.13A10,10,0,0,1,12.84,4Z"/><path class="cls-1" d="M6.13,7.79,3.28,4.94A14,14,0,0,0,0,12.84H4A10,10,0,0,1,6.13,7.79Z"/><path class="cls-1" d="M9.89,23.19a10.91,10.91,0,0,1-2.1-1.28L4.94,24.75a14,14,0,0,0,4.77,2.66c0-.47-.06-.95-.06-1.43A16,16,0,0,1,9.89,23.19Z"/><path class="cls-1" d="M27.41,9.71a14,14,0,0,0-2.66-4.77L21.91,7.79a10.91,10.91,0,0,1,1.28,2.1A16,16,0,0,1,26,9.65C26.46,9.65,26.94,9.67,27.41,9.71Z"/><path class="cls-1" d="M33.69,26A7.71,7.71,0,1,0,26,33.69,7.72,7.72,0,0,0,33.69,26Zm-4.37,1L29,30.09l-3-.65-3,.65L22.65,27l-1.56-2.67,2.83-1.25L26,20.78l2.07,2.31,2.83,1.25Z"/><path class="cls-1" d="M16,27.16H12a14,14,0,0,0,3.28,7.9l2.84-2.85A10,10,0,0,1,16,27.16Z"/><path class="cls-1" d="M27.16,16a10,10,0,0,1,5.05,2.09l2.85-2.84A14,14,0,0,0,27.16,12v4Z"/><path class="cls-1" d="M24.81,16V12a14,14,0,0,0-7.9,3.28l2.84,2.84A10.07,10.07,0,0,1,24.81,16Z"/><path class="cls-1" d="M16,24.81a10.07,10.07,0,0,1,2.09-5.06l-2.84-2.84A14,14,0,0,0,12,24.81Z"/><path class="cls-1" d="M33.87,32.21l2.85,2.85A14,14,0,0,0,40,27.16H36a10,10,0,0,1-2.1,5.05Z"/><path class="cls-1" d="M27.16,36v4a14,14,0,0,0,7.9-3.28l-2.85-2.85A10,10,0,0,1,27.16,36Z"/><path class="cls-1" d="M16.91,36.72A14,14,0,0,0,24.81,40V36a10,10,0,0,1-5.06-2.1Z"/><path class="cls-1" d="M36,24.81h4a14,14,0,0,0-3.28-7.9l-2.85,2.84A10,10,0,0,1,36,24.81Z"/><path class="cls-1" d="M26,24.31l-.65.72-.89.4.49.84.1,1L26,27l1,.21.1-1,.49-.84-.9-.4Z"/></g></g></svg>