<svg xmlns="http://www.w3.org/2000/svg" viewBox="0 0 40 36.56"><defs><style>.cls-1{fill:#fdb715;}</style></defs><g id="Layer_2" data-name="Layer 2"><g id="Layer_1-2" data-name="Layer 1"><path class="cls-1" d="M36.61,0l-.24,2.24,1.3-2-.56,2.54A5.35,5.35,0,0,1,38,6.52c1.55,5-.18,5-.18,5-1.31.18-2.3-1.74-2.3-1.74a5.13,5.13,0,0,1-1.62-2.24c-1.55,1.3-.3,7.51-.3,7.51.93,2.36-1.06,5.22-1.06,5.22s-.68.18.25.31,3.85,3,3.85,3c3.16,1.3,3.16,7.63,3.16,7.63.56,2.42-.12,2.23-.12,2.23-3-1.36-1.8-2.29-1.8-2.29a.85.85,0,0,0,.74-.87c-1-.56-1.3-3.54-1.3-3.54C36.68,25.08,34.07,24,34.07,24c-2.35-1.18-1.92.06-1.92.06,2.05,2,1,3.17,1,3.17l-.56,4.65c-.25,2.43-1.37,2.61-1.37,2.61-1.17,0-.93-1.67-.93-1.67a1.12,1.12,0,0,1,1.25-1.19,1.27,1.27,0,0,1,.43-1.3l-.19-3.54c-1.05-1.3-3.16-4.15-3.16-4.15-.44-1.12-1.24-.5-1.24-.5-4,2.61-11.24.68-11.24.68A6.36,6.36,0,0,1,15,26.26c-1.12,2.3-.06,3.6-.06,3.6l4.6,3.54c1.42,1.24.93,2.23.93,2.23h-1.8c-1.49,0-.5-1.86-.5-1.86-1.18-.31-5.09-3.17-5.09-3.17-1.8-.37-.68-3.1-.68-3.1,0-1.8-.62-1.49-.62-1.49A15.56,15.56,0,0,1,10,28.93c-1.06,4.16,3.72,6.46,3.72,6.46,1.06.74.63,1.17.63,1.17H12.66c-1.25,0-.68-1.17-.68-1.17C10.61,35.32,8.87,32,8.87,32,6,29.55,7.51,28.43,7.51,28.43a4.76,4.76,0,0,0,1.73-3.72c-3.91-3.79-2.91-7.64-2.91-7.64-1.06-.43-1.55.81-1.55.81C3.72,26,.18,26,.18,26-1.31,14.9,6.76,15.77,6.76,15.77c3.36-5,12.73-2.79,12.73-2.79a11,11,0,0,0,6.83-5.1c3.07-7.91,9-6.42,9-6.42Z"/></g></g></svg>