<svg xmlns="http://www.w3.org/2000/svg" viewBox="0 0 40 40"><defs><style>.cls-1{fill:#fdb715;}</style></defs><g id="Layer_2" data-name="Layer 2"><g id="Layer_1-2" data-name="Layer 1"><path class="cls-1" d="M20,0A20,20,0,1,0,40,20,20,20,0,0,0,20,0ZM7.16,33.43A18.56,18.56,0,0,1,1.41,20c0-.11,0-.22,0-.33l5.17,1.78,3.63,9.35ZM11.4,6l9.4-3.38,6.73,6.28L22,16.81l-10.29-2Zm21,27.83c-.39.35-.79.69-1.21,1l-7.73,3.31-5.06-5.28L25,25.45l8.78,1.08ZM34.89,8.88A18.48,18.48,0,0,1,38.59,20v.33l-1.05-.26-3.16-8.92Z"/></g></g></svg>