<?xml version="1.0" encoding="utf-8"?>
<!-- Generator: Adobe Illustrator 25.1.0, SVG Export Plug-In . SVG Version: 6.00 Build 0)  -->
<svg version="1.1" id="Layer_1" xmlns="http://www.w3.org/2000/svg" xmlns:xlink="http://www.w3.org/1999/xlink" x="0px" y="0px"
	 viewBox="0 0 100 100" style="enable-background:new 0 0 100 100;" xml:space="preserve">
<style type="text/css">
	.st0{fill-rule:evenodd;clip-rule:evenodd;fill:#181715;}
	.st1{fill:#333333;}
</style>
<path class="st0" d="M50,0c27.6,0,50,22.4,50,50s-22.4,50-50,50S0,77.6,0,50c0,0,0,0,0,0C0,22.4,22.4,0,50,0C50,0,50,0,50,0z"/>
<path class="st1" d="M44.6,47.5l1.9-4.6c0.1-0.3,0.2-0.6,0.3-1c0-0.3-0.3-0.4-0.5-0.5c-0.3-0.1-0.6-0.1-0.8,0
	c-0.3,0.2-0.5,0.5-0.5,0.8L43,46.8c-0.1,0.3-0.1,0.6,0,0.8c0.1,0.2,0.3,0.4,0.5,0.5c0.3,0.1,0.6,0.1,0.8,0
	C44.6,48,44.6,47.8,44.6,47.5z"/>
<path class="st1" d="M56.5,51.7c-0.4-0.1-0.7-0.1-0.8,0c-0.2,0.2-0.4,0.5-0.5,0.8l-2.1,4.8c-0.1,0.3-0.1,0.6,0,0.8
	c0.1,0.2,0.3,0.4,0.5,0.5c0.3,0.1,0.6,0.1,0.8,0c0.2-0.1,0.4-0.3,0.5-0.5l2.1-4.6c0.1-0.3,0.2-0.6,0.3-1
	C57.1,52.1,56.9,51.9,56.5,51.7z"/>
<path class="st1" d="M69.4,50.1L49.7,30.3c-0.6-0.6-1.4-0.8-2.2-0.8l-14.6,0.7c-1.5,0-2.7,1.2-2.7,2.7l-0.7,14.6
	c0,0.8,0.3,1.6,0.8,2.2l19.8,19.8c1.4,1.4,3.6,1.4,5.1,0l14.3-14.4c1.4-1.4,1.4-3.6,0-5C69.5,50.2,69.4,50.1,69.4,50.1z M36.4,36.4
	c-0.9,0.9-2.5,0.9-3.4,0c-0.9-0.9-0.9-2.5,0-3.4c0.9-0.9,2.5-0.9,3.4,0C37.4,33.9,37.4,35.5,36.4,36.4
	C36.5,36.4,36.5,36.4,36.4,36.4z M40,48.3c-0.4-1.1-0.3-2.4,0.3-3.4l1.5-3.6c0.5-1.4,1.2-2.2,2.2-2.6c1.1-0.4,2.3-0.4,3.3,0.1
	c1.1,0.4,2,1.2,2.5,2.2c0.3,1.1,0.2,2.3-0.3,3.4L47.9,48c-0.4,1.1-1.2,2-2.2,2.6c-1.1,0.4-2.3,0.4-3.3-0.1
	C41.3,50.3,40.4,49.4,40,48.3z M46.3,57.1c-0.5,0.5-1.3,0.7-1.9,0.4c-0.9-0.4-1.3-1.4-0.9-2.3c0.1-0.1,0.1-0.2,0.2-0.3l10.3-12.3
	c0.5-0.5,1.3-0.7,1.9-0.4c0.9,0.4,1.3,1.4,0.9,2.3c-0.1,0.1-0.1,0.2-0.2,0.3L46.3,57.1z M59.5,55.2L58,58.7c-0.4,1.1-1.2,2-2.2,2.6
	c-1,0.5-2.1,0.4-3.3-0.1c-1.1-0.4-1.9-1.2-2.3-2.3c-0.4-1.1-0.3-2.4,0.3-3.4l1.5-3.6c0.5-1.4,1.2-2.2,2.2-2.6
	c1.1-0.4,2.3-0.4,3.3,0.1c1.2,0.5,2,1.2,2.3,2.2C60.2,52.8,60.1,54.1,59.5,55.2z"/>
</svg>
